<svg class="footer__block_svg-youtube" width="36" height="14" viewBox="0 0 36 14" fill="none" xmlns="http://www.w3.org/2000/svg">
<symbol id="youtube"> <path d="M1.46591 0.818182V11H0.232955V0.818182H1.46591ZM3.68821 5.4517V6.54545H0.571023V5.4517H3.68821ZM12.3239 5.90909C12.3239 6.98295 12.13 7.91098 11.7422 8.69318C11.3544 9.47538 10.8224 10.0786 10.1463 10.5028C9.47017 10.9271 8.69792 11.1392 7.82955 11.1392C6.96117 11.1392 6.18892 10.9271 5.51278 10.5028C4.83665 10.0786 4.30469 9.47538 3.9169 8.69318C3.52912 7.91098 3.33523 6.98295 3.33523 5.90909C3.33523 4.83523 3.52912 3.9072 3.9169 3.125C4.30469 2.3428 4.83665 1.73958 5.51278 1.31534C6.18892 0.891098 6.96117 0.678977 7.82955 0.678977C8.69792 0.678977 9.47017 0.891098 10.1463 1.31534C10.8224 1.73958 11.3544 2.3428 11.7422 3.125C12.13 3.9072 12.3239 4.83523 12.3239 5.90909ZM11.1307 5.90909C11.1307 5.02746 10.9832 4.28338 10.6882 3.67685C10.3965 3.07031 10.0005 2.61127 9.5 2.29972C9.00284 1.98816 8.44602 1.83239 7.82955 1.83239C7.21307 1.83239 6.65459 1.98816 6.15412 2.29972C5.65696 2.61127 5.26089 3.07031 4.96591 3.67685C4.67424 4.28338 4.52841 5.02746 4.52841 5.90909C4.52841 6.79072 4.67424 7.5348 4.96591 8.14134C5.26089 8.74787 5.65696 9.20691 6.15412 9.51847C6.65459 9.83002 7.21307 9.9858 7.82955 9.9858C8.44602 9.9858 9.00284 9.83002 9.5 9.51847C10.0005 9.20691 10.3965 8.74787 10.6882 8.14134C10.9832 7.5348 11.1307 6.79072 11.1307 5.90909ZM13.8004 4.45739V3.36364H20.005V4.45739H17.4993V11H16.326V4.45739H13.8004ZM22.4721 13.8636C22.2733 13.8636 22.0959 13.8471 21.9402 13.8139C21.7844 13.7841 21.6767 13.7543 21.617 13.7244L21.9153 12.6903C22.2003 12.7633 22.4522 12.7898 22.671 12.7699C22.8897 12.75 23.0836 12.6522 23.2527 12.4766C23.425 12.3042 23.5824 12.0241 23.725 11.6364L23.9437 11.0398L21.1199 3.36364H22.3926L24.5005 9.44886H24.5801L26.688 3.36364H27.9608L24.7193 12.1136C24.5734 12.508 24.3928 12.8345 24.1774 13.093C23.9619 13.3549 23.7117 13.5488 23.4267 13.6747C23.1449 13.8007 22.8268 13.8636 22.4721 13.8636ZM35.177 0.5L35.7736 1.21591C35.5416 1.44129 35.2731 1.59872 34.9682 1.68821C34.6633 1.7777 34.3186 1.83239 33.9341 1.85227C33.5497 1.87216 33.1221 1.89205 32.6515 1.91193C32.1212 1.93182 31.682 2.06108 31.334 2.29972C30.986 2.53835 30.7175 2.88305 30.5286 3.33381C30.3397 3.78456 30.2187 4.33807 30.1657 4.99432H30.2651C30.5236 4.51705 30.8816 4.16572 31.339 3.94034C31.7963 3.71496 32.2869 3.60227 32.8105 3.60227C33.4071 3.60227 33.9441 3.74148 34.4213 4.01989C34.8986 4.2983 35.2765 4.71094 35.5549 5.25781C35.8333 5.80469 35.9725 6.47917 35.9725 7.28125C35.9725 8.08002 35.83 8.76941 35.5449 9.34943C35.2632 9.92945 34.8671 10.3769 34.3567 10.6918C33.8496 11.0033 33.2547 11.1591 32.5719 11.1591C31.8891 11.1591 31.2909 10.9983 30.7772 10.6768C30.2634 10.352 29.8641 9.87145 29.579 9.23509C29.294 8.59541 29.1515 7.80492 29.1515 6.86364V6.0483C29.1515 4.34801 29.4398 3.05871 30.0165 2.1804C30.5965 1.30208 31.4682 0.848011 32.6316 0.818182C33.0426 0.804924 33.4088 0.80161 33.7303 0.808238C34.0518 0.814867 34.3319 0.799952 34.5705 0.763494C34.8091 0.727036 35.0113 0.639204 35.177 0.5ZM32.5719 10.1051C33.0326 10.1051 33.4287 9.98911 33.7601 9.7571C34.0949 9.52509 34.3517 9.19863 34.5307 8.7777C34.7097 8.35346 34.7992 7.85464 34.7992 7.28125C34.7992 6.72443 34.708 6.25047 34.5257 5.85938C34.3468 5.46828 34.0899 5.16998 33.7551 4.96449C33.4204 4.759 33.0194 4.65625 32.552 4.65625C32.2106 4.65625 31.9041 4.71425 31.6323 4.83026C31.3605 4.94626 31.1285 5.11695 30.9363 5.34233C30.744 5.56771 30.5949 5.8428 30.4888 6.16761C30.3861 6.49242 30.3314 6.86364 30.3248 7.28125C30.3248 8.13636 30.5253 8.82079 30.9263 9.33452C31.3274 9.84825 31.8759 10.1051 32.5719 10.1051Z" fill="#F5F5F5"/> </symbol>
</svg>
